<svg xmlns="http://www.w3.org/2000/svg" width="900" height="460" viewBox="0 0 900 460"><metadata>source=sha256:b5e800793f700e1d096a325961b3f40bac8cd93d12dddbdcbc111d48fa600466</metadata><rect width="100%" height="100%" fill="#f8fafc"/><text x="35" y="34" font-family="system-ui,sans-serif" font-size="22" fill="#0f172a" text-anchor="start">Paired Selection gains and regressions versus A0</text><text x="35" y="58" font-family="system-ui,sans-serif" font-size="13" fill="#475569" text-anchor="start">Task counts on the identical 15-task Selection pool</text><rect x="190" y="230" width="50" height="120" fill="#16a34a"/><rect x="250" y="230" width="50" height="120" fill="#dc2626"/><text x="240" y="395" font-family="system-ui,sans-serif" font-size="13" fill="#0f172a" text-anchor="middle">C1</text><text x="215" y="230" font-family="system-ui,sans-serif" font-size="12" fill="#0f172a" text-anchor="middle">2</text><text x="275" y="230" font-family="system-ui,sans-serif" font-size="12" fill="#0f172a" text-anchor="middle">2</text><rect x="400" y="230" width="50" height="120" fill="#16a34a"/><rect x="460" y="170" width="50" height="180" fill="#dc2626"/><text x="450" y="395" font-family="system-ui,sans-serif" font-size="13" fill="#0f172a" text-anchor="middle">C2</text><text x="425" y="230" font-family="system-ui,sans-serif" font-size="12" fill="#0f172a" text-anchor="middle">2</text><text x="485" y="170" font-family="system-ui,sans-serif" font-size="12" fill="#0f172a" text-anchor="middle">3</text><rect x="610" y="230" width="50" height="120" fill="#16a34a"/><rect x="670" y="230" width="50" height="120" fill="#dc2626"/><text x="660" y="395" font-family="system-ui,sans-serif" font-size="13" fill="#0f172a" text-anchor="middle">C3</text><text x="635" y="230" font-family="system-ui,sans-serif" font-size="12" fill="#0f172a" text-anchor="middle">2</text><text x="695" y="230" font-family="system-ui,sans-serif" font-size="12" fill="#0f172a" text-anchor="middle">2</text><line x1="100" y1="350" x2="800" y2="350" stroke="#64748b"/><line x1="650" y1="42" x2="676" y2="42" stroke="#16a34a" stroke-width="4"/><text x="684" y="47" font-family="system-ui,sans-serif" font-size="12" fill="#0f172a" text-anchor="start">gains</text><line x1="650" y1="64" x2="676" y2="64" stroke="#dc2626" stroke-width="4"/><text x="684" y="69" font-family="system-ui,sans-serif" font-size="12" fill="#0f172a" text-anchor="start">regressions</text></svg>